<?xml version="1.0" encoding="utf-8"?>
<!-- Generator: Adobe Illustrator 27.5.0, SVG Export Plug-In . SVG Version: 6.00 Build 0)  -->
<svg version="1.1" xmlns="http://www.w3.org/2000/svg" xmlns:xlink="http://www.w3.org/1999/xlink" x="0px" y="0px"
	 viewBox="0 0 750 500" style="enable-background:new 0 0 750 500;" xml:space="preserve">
<g id="BACKGROUND">
	<rect y="-0.055" style="fill:#D0EFF4;" width="750" height="500"/>
</g>
<g id="OBJECTS">
	<rect y="391.658" style="fill:#98D3E5;" width="750" height="108.287"/>
	<path style="fill:#98D3E5;" d="M503.896,70.766c-29.682,0.088-57.359,8.688-80.722,23.486c-29.503,18.688-66.845,18.688-96.349,0
		c-23.363-14.799-51.04-23.399-80.723-23.486c-85.729-0.253-155.099,71.273-152.322,156.958
		c2.645,81.596,69.624,146.931,151.863,146.931c54.663,0,102.577-28.871,129.345-72.191c0.005-0.008,0.016-0.008,0.021,0
		c26.768,43.32,74.682,72.191,129.345,72.191c82.239,0,149.218-65.335,151.863-146.931
		C658.996,142.039,589.626,70.513,503.896,70.766z"/>
	<g>
		<ellipse style="opacity:0.5;fill:#496A75;" cx="375" cy="407.49" rx="316.871" ry="8.62"/>
		<g>
			<g>
				<g>
					<g>
						<ellipse style="fill:#19283B;" cx="126.918" cy="356.768" rx="37.103" ry="52.004"/>
					</g>
				</g>
				<g>
					<g>
						<rect x="126.417" y="304.763" style="fill:#19283B;" width="42.36" height="104.008"/>
					</g>
				</g>
				<g>
					<g>
						<ellipse style="fill:#0C1723;" cx="168.957" cy="356.768" rx="37.103" ry="52.004"/>
					</g>
				</g>
			</g>
			<g>
				<g>
					<g>
						<ellipse style="fill:#19283B;" cx="439.956" cy="356.768" rx="37.103" ry="52.004"/>
					</g>
				</g>
				<g>
					<g>
						<rect x="439.455" y="304.763" style="fill:#19283B;" width="42.36" height="104.008"/>
					</g>
				</g>
				<g>
					<g>
						<ellipse style="fill:#0C1723;" cx="481.995" cy="356.768" rx="37.103" ry="52.004"/>
					</g>
				</g>
			</g>
			<g>
				<g>
					<path style="fill:#F9D153;" d="M213.654,256.891l58.85-58.474c2.783-2.765,6.255-4.624,10.009-5.377
						c16.524-3.312,68.882-11.435,173.795-8.329c130.567,3.865,177.909,86.079,177.909,86.079H223.016L213.654,256.891z"/>
				</g>
			</g>
			<g>
				<g>
					<path style="fill:#19283B;" d="M409.002,269.034l25.992-59.315c3.111-7.099-1.88-15.19-9.287-15.054l-138.044,2.525
						c-4.709,0.086-9.214,2.046-12.614,5.488l-61.395,62.146L409.002,269.034z"/>
				</g>
				<g>
					<path style="fill:#466677;" d="M220.685,261.974l56.498-57.188c2.857-2.892,6.599-4.524,10.535-4.596l138.173-2.526
						c2.313,0,4.404,1.173,5.741,3.218c1.484,2.271,1.714,5.125,0.614,7.634L407.06,265.99L220.685,261.974z"/>
				</g>
				<g>
					<polygon style="fill:#3C5966;" points="424.371,226.486 255.745,226.486 220.685,261.974 407.06,265.99 					"/>
				</g>
				<g style="opacity:0.5;">
					<g>
						<polygon style="fill:#FFFFFF;" points="300.456,199.956 268.318,213.758 220.685,261.974 236.916,262.324 385.767,198.397 
													"/>
					</g>
					<g>
						<path style="fill:#FFFFFF;" d="M431.678,209.812l0.568-1.297c1.1-2.509,0.87-5.363-0.614-7.634
							c-1.337-2.045-3.429-3.218-5.741-3.218l-3.101,0.057l-152.121,65.331l35.273,0.76L431.678,209.812z"/>
					</g>
				</g>
			</g>
			<g>
				<g>
					<path style="fill:#0C1723;" d="M302.589,248.248h-49.648c-1.509,0-2.743,1.304-2.743,2.897l0,0
						c0,1.593,1.234,2.896,2.743,2.896h49.648c1.509,0,2.743-1.303,2.743-2.896l0,0
						C305.332,249.552,304.097,248.248,302.589,248.248z"/>
				</g>
			</g>
			<g>
				<g>
					<path style="fill:#0C1723;" d="M382.105,250.403l-49.634-1.244c-1.508-0.038-2.771,1.234-2.807,2.827l0,0
						c-0.036,1.592,1.169,2.926,2.677,2.964l49.633,1.244c1.508,0.038,2.772-1.234,2.807-2.827l0,0
						C384.818,251.775,383.614,250.44,382.105,250.403z"/>
				</g>
			</g>
			<g>
				<g>
					<path style="fill:#E5A638;" d="M399.78,290.395l15.586-35.712c-37.109-1.717-91.809-2.861-171.703-2.861
						c-190.186,0-172.926,37.531-172.926,37.531l35.216,16.899h383.985l-4.546-15.857H399.78z"/>
				</g>
			</g>
			<g>
				<g>
					<path style="fill:#F9D153;" d="M277.765,289.353c0,0-13.906-33.107,175.556-30.287l41.104-12.348l159.156,8.16
						c8.874,0.455,17.228,4.557,23.276,11.43l3.546,4.03l-18.08,24.702l-380.412,14.128L277.765,289.353z"/>
				</g>
			</g>
			<g>
				<path style="fill:#CC7A27;" d="M277.765,289.353c-0.362-1.399-0.164-2.901,0.268-4.289l0.391-1.029
					c0.121-0.35,0.341-0.646,0.508-0.973l0.543-0.962l0.668-0.873l0.678-0.871c0.227-0.291,0.512-0.522,0.766-0.786
					c0.532-0.5,1.029-1.053,1.596-1.514c1.17-0.864,2.275-1.863,3.56-2.554l1.875-1.134c0.621-0.391,1.296-0.658,1.943-0.993
					c1.313-0.623,2.599-1.332,3.971-1.803c1.356-0.512,2.702-1.069,4.072-1.545l4.148-1.291c1.376-0.469,2.789-0.769,4.193-1.112
					l4.218-1.014c2.831-0.557,5.671-1.079,8.513-1.579l8.521-1.272l8.544-1.101l8.559-0.968c2.856-0.292,5.715-0.56,8.575-0.81
					c5.72-0.496,11.445-0.924,17.179-1.211c11.462-0.608,22.948-0.898,34.417-0.512c-11.452,0.655-22.872,1.497-34.273,2.525
					c-2.851,0.244-5.699,0.524-8.545,0.812c-2.85,0.249-5.692,0.574-8.538,0.859c-5.686,0.625-11.368,1.272-17.044,1.975
					l-8.503,1.125l-8.493,1.197l-8.417,1.408l-4.164,0.893c-1.389,0.295-2.783,0.578-4.143,0.972l-4.109,1.095
					c-1.354,0.409-2.68,0.897-4.024,1.341c-1.359,0.415-2.635,1.004-3.941,1.542c-0.642,0.288-1.323,0.512-1.936,0.852l-1.864,0.987
					c-1.282,0.607-2.389,1.461-3.581,2.214c-0.576,0.401-1.077,0.888-1.622,1.329c-0.26,0.233-0.555,0.437-0.787,0.696l-0.705,0.773
					l-0.711,0.775l-0.59,0.864c-0.185,0.295-0.426,0.564-0.567,0.883l-0.457,0.946C277.915,286.503,277.553,287.926,277.765,289.353
					z"/>
			</g>
			<g>
				<g>
					<path style="fill:#E5A638;" d="M314.02,276.116l366.383-5.778l6.661,20.712c2.243,6.973,1.451,14.635-2.162,20.934
						l-8.208,14.307l-127.519,49.843c-10.223,3.678-20.949,5.555-31.749,5.555H293.23l-12.099-72.24
						C272.44,276.412,314.02,276.116,314.02,276.116z"/>
				</g>
			</g>
			<g>
				<path style="fill:#CC7A27;" d="M355.397,275.463c17.389-0.986,34.784-1.644,52.18-2.235c8.698-0.264,17.396-0.561,26.095-0.755
					c8.699-0.221,17.398-0.445,26.098-0.587c8.7-0.156,17.399-0.357,26.101-0.428l13.051-0.136l13.053-0.038
					c17.406,0.036,34.813,0.169,52.229,0.886c-17.385,1.265-34.779,1.948-52.175,2.532l-13.048,0.374l-13.049,0.276
					c-8.699,0.203-17.401,0.276-26.101,0.395c-8.7,0.132-17.402,0.182-26.104,0.236c-8.701,0.081-17.404,0.058-26.106,0.069
					C390.215,276.01,372.809,275.901,355.397,275.463z"/>
			</g>
			<g>
				<path style="fill:#CC7A27;" d="M281.892,313.993l11.338,67.697h224.197c10.8,0,21.526-1.877,31.749-5.555l127.519-49.843
					l7.056-12.299H281.892z"/>
			</g>
			<g>
				<g>
					<polygon style="fill:#0C1723;" points="524.381,377.595 533.737,377.595 608.708,354.715 653.882,338.461 658.511,292.488 
						524.381,292.488 					"/>
				</g>
			</g>
			<g>
				<g>
					<g>
						<ellipse style="fill:#19283B;" cx="570.204" cy="357.33" rx="36.018" ry="50.484"/>
					</g>
				</g>
				<g>
					<g>
						<rect x="569.717" y="306.846" style="fill:#19283B;" width="41.122" height="100.968"/>
					</g>
				</g>
				<g>
					<g>
						<ellipse style="fill:#494F5B;" cx="611.014" cy="357.33" rx="36.018" ry="50.484"/>
					</g>
				</g>
				<g>
					<g>
						<ellipse style="fill:#C1E0F4;" cx="611.014" cy="357.331" rx="20.941" ry="35.877"/>
					</g>
					<g>
						<path style="fill:#7B98BA;" d="M611.014,390.207c-7.491,0-17.941-12.508-17.941-32.877c0-20.369,10.45-32.877,17.941-32.877
							c7.492,0,17.941,12.508,17.941,32.877C628.955,377.699,618.506,390.207,611.014,390.207z"/>
					</g>
					<g>
						<ellipse style="fill:#546E87;" cx="600.814" cy="357.33" rx="7.741" ry="16.439"/>
					</g>
					<g>
						<path style="fill:#7B98BA;" d="M600.722,369.011c-2.535,0-6.071-4.905-6.071-12.892c0-7.987,3.536-12.892,6.071-12.892
							c2.535,0,6.071,4.905,6.071,12.892C606.793,364.106,603.257,369.011,600.722,369.011z"/>
					</g>
					<g>
						<path style="fill:#C1E0F4;" d="M602.741,356.358c-1.347,0.284-3.703-1.581-4.481-5.264c-0.778-3.683,0.623-6.342,1.97-6.627
							c1.347-0.285,3.703,1.58,4.481,5.264C605.489,353.415,604.088,356.074,602.741,356.358z"/>
					</g>
					<g>
						<path style="fill:#546E87;" d="M611.014,324.453c-2.291,0-4.859,1.176-7.32,3.383c6.667,0.692,15.46,11.785,15.46,29.494
							s-8.794,28.802-15.46,29.494c2.461,2.207,5.029,3.383,7.32,3.383c7.492,0,17.941-12.508,17.941-32.877
							C628.955,336.961,618.506,324.453,611.014,324.453z"/>
					</g>
				</g>
			</g>
			<g>
				<g>
					<rect x="302.502" y="292.488" style="fill:#0C1723;" width="134.13" height="89.202"/>
				</g>
			</g>
			<g>
				<g>
					<g>
						<ellipse style="fill:#19283B;" cx="343.719" cy="357.33" rx="36.018" ry="50.484"/>
					</g>
				</g>
				<g>
					<g>
						<rect x="343.232" y="306.846" style="fill:#19283B;" width="41.122" height="100.968"/>
					</g>
				</g>
				<g>
					<g>
						<ellipse style="fill:#494F5B;" cx="384.529" cy="357.33" rx="36.018" ry="50.484"/>
					</g>
				</g>
				<g>
					<g>
						<ellipse style="fill:#C1E0F4;" cx="384.528" cy="357.331" rx="20.941" ry="35.877"/>
					</g>
					<g>
						<path style="fill:#7B98BA;" d="M384.528,390.207c-7.491,0-17.941-12.508-17.941-32.877c0-20.369,10.45-32.877,17.941-32.877
							c7.492,0,17.941,12.508,17.941,32.877C402.469,377.699,392.02,390.207,384.528,390.207z"/>
					</g>
					<g>
						<path style="fill:#546E87;" d="M374.328,373.769c-3.232,0-7.741-6.254-7.741-16.439s4.509-16.439,7.741-16.439
							c3.233,0,7.741,6.254,7.741,16.439S377.561,373.769,374.328,373.769z"/>
					</g>
					<g>
						<path style="fill:#7B98BA;" d="M374.236,369.011c-2.535,0-6.071-4.905-6.071-12.892c0-7.987,3.536-12.892,6.071-12.892
							c2.535,0,6.071,4.905,6.071,12.892C380.307,364.106,376.771,369.011,374.236,369.011z"/>
					</g>
					<g>
						<path style="fill:#C1E0F4;" d="M376.256,356.358c-1.347,0.284-3.703-1.581-4.481-5.264c-0.778-3.683,0.623-6.342,1.97-6.627
							c1.347-0.285,3.703,1.58,4.482,5.264C379.004,353.415,377.603,356.074,376.256,356.358z"/>
					</g>
					<g>
						<path style="fill:#546E87;" d="M384.528,324.453c-2.291,0-4.859,1.176-7.32,3.383c6.666,0.692,15.46,11.785,15.46,29.494
							s-8.794,28.802-15.46,29.494c2.461,2.207,5.029,3.383,7.32,3.383c7.492,0,17.941-12.508,17.941-32.877
							C402.469,336.961,392.02,324.453,384.528,324.453z"/>
					</g>
				</g>
			</g>
			<g>
				<g>
					<path style="fill:#E5A638;" d="M318.547,381.69c3.852-2.199,6.903-5.868,8.38-10.451
						c16.781-52.083,25.305-79.634,70.498-71.766c32.01,5.573,34.823,55.948,32.493,82.217h21.625v-92.337H306.161
						c-14.811,0-26.03,14.125-23.451,29.526l5.368,62.81H318.547z"/>
				</g>
			</g>
			<g>
				<g>
					<path style="fill:#E5A638;" d="M519.551,381.69h2.231c8.476-0.904,14.969-1.859,23.273-4.072l0.116-0.042
						c3.716-1.337,6.572-4.517,7.64-8.505l0.021-0.077c16.781-63.043,25.305-76.917,70.498-67.392
						c17.981,3.789,26.736,18.898,30.554,36.858l22.812-12.169l-8.979-36.759l-163.192-0.18L519.551,381.69z"/>
				</g>
			</g>
			<g>
				<g>
					<path style="fill:#CC7A27;" d="M507.678,313.993l11.012,67.669c9.316-0.126,18.562-1.644,27.467-4.514
						c3.227-1.513,5.682-4.453,6.652-8.077l0.021-0.077c6.981-26.227,12.535-43.938,19.893-55.001H507.678z"/>
				</g>
				<g>
					<path style="fill:#CC7A27;" d="M643.347,313.993c4.675,5.89,8.506,16.311,10.536,24.467l22.812-12.169l-3.004-12.299H643.347z"
						/>
				</g>
			</g>
			<g>
				<g>
					<path style="fill:#CC7A27;" d="M326.927,371.239c8.148-25.287,14.358-44.77,23.755-57.245h-68.329
						c-0.028,1.604,0.081,3.237,0.357,4.886l0,0.002l10.52,62.809h25.317C322.4,379.491,325.451,375.821,326.927,371.239z"/>
				</g>
				<g>
					<path style="fill:#CC7A27;" d="M418.52,313.993c12.112,18.297,13.051,49.061,11.398,67.697h23.403v-67.697H418.52z"/>
				</g>
			</g>
			<g>
				<g>
					<path style="fill:#8E5420;" d="M433.629,381.69c9.463-69.583-0.094-124.917-0.204-125.531l-0.984,0.176
						c0.109,0.613,9.65,55.877,0.179,125.356H433.629z"/>
				</g>
				<g>
					<path style="fill:#8E5420;" d="M543.131,256.072l-0.938,0.35c0.145,0.388,12.914,36.157,0.813,121.676
						c0.351-0.1,0.703-0.2,1.053-0.304C556.093,292.284,543.276,256.459,543.131,256.072z"/>
				</g>
			</g>
			<g>
				<g>
					<g>
						<path style="fill:#F9D153;" d="M288.078,338.634H77.431c-4.47,0-8.339-3.281-9.303-7.89l-6.23-29.769
							c-1.249-5.967,3.052-11.621,8.839-11.621h207.028L288.078,338.634z"/>
					</g>
					<g>
						<path style="fill:#C1E0F4;" d="M77.431,334.634c-2.592,0-4.808-1.937-5.389-4.71l-6.23-29.768
							c-0.372-1.779,0.051-3.582,1.16-4.948c0.563-0.692,1.8-1.854,3.764-1.854h200.274c2.042,0,3.805,1.432,4.223,3.431
							l6.833,32.653c0.561,2.68-1.485,5.198-4.223,5.198H77.431z"/>
					</g>
					<g>
						<path style="fill:#FFFFFF;" d="M250.821,293.353H108.079L71.95,329.482l0.093,0.442c0.58,2.773,2.796,4.71,5.389,4.71H209.54
							L250.821,293.353z"/>
					</g>
					<g>
						<path style="fill:#7B98BA;" d="M77.431,331.634c-1.157,0-2.166-0.956-2.452-2.324l-6.23-29.769
							c-0.187-0.891,0.015-1.781,0.553-2.443c0.402-0.494,0.885-0.745,1.435-0.745h200.274c0.619,0,1.16,0.44,1.286,1.045
							l6.832,32.652c0.112,0.533-0.119,0.917-0.266,1.099c-0.147,0.182-0.476,0.485-1.02,0.485H77.431z"/>
					</g>
					<g>
						<path style="fill:#19283B;" d="M77.431,330.634c-0.679,0-1.285-0.629-1.474-1.529l-6.23-29.769
							c-0.126-0.603-0.001-1.174,0.35-1.607c0.306-0.376,0.563-0.376,0.659-0.376h200.274c0.148,0,0.277,0.104,0.307,0.249
							l6.833,32.653c0.008,0.04,0.031,0.146-0.064,0.263c-0.094,0.116-0.203,0.116-0.244,0.116H77.431z"/>
					</g>
				</g>
			</g>
			<g>
				<path style="fill:#F9D153;" d="M288.078,381.69H88.322c-4.067,0-7.573-2.862-8.386-6.847l-4.944-24.221h213.085V381.69z"/>
			</g>
			<g>
				<polygon style="fill:#E5A638;" points="77.534,363.07 288.078,368.446 288.078,350.622 74.993,350.622 				"/>
			</g>
			<g>
				<g>
					<g>
						<path style="fill:#A31332;" d="M200.234,386.763h-41.96c-2.044,0-3.717-1.673-3.717-3.717v-15.204
							c0-2.045,1.673-3.717,3.717-3.717h41.96c2.045,0,3.717,1.673,3.717,3.717v15.204
							C203.952,385.09,202.279,386.763,200.234,386.763z"/>
					</g>
				</g>
				<g>
					<g>
						<path style="fill:#FF6333;" d="M196.591,386.763c2.045,0,3.717-1.673,3.717-3.717v-15.204c0-2.044-1.673-3.717-3.717-3.717
							h-41.96c-2.045,0-3.717,1.673-3.717,3.717v15.204c0,2.045,1.673,3.717,3.717,3.717H196.591z"/>
					</g>
					<g>
						<path style="fill:#A31332;" d="M196.591,384.263h-41.96c-0.66,0-1.217-0.558-1.217-1.218v-15.204
							c0-0.659,0.558-1.217,1.217-1.217h41.96c0.66,0,1.217,0.558,1.217,1.217v15.204
							C197.808,383.705,197.251,384.263,196.591,384.263z M154.631,367.624c-0.112,0-0.217,0.105-0.217,0.217v15.204
							c0,0.112,0.105,0.218,0.217,0.218h41.96c0.112,0,0.217-0.105,0.217-0.218v-15.204c0-0.111-0.105-0.217-0.217-0.217H154.631z"
							/>
					</g>
				</g>
			</g>
			<g>
				<g>
					<path style="fill:#F9D153;" d="M326.273,372.972c0.243-0.562,0.463-1.139,0.654-1.734
						c16.781-52.083,25.305-79.634,70.498-71.766c19.74,3.437,28.374,23.912,31.548,45.265l0.001,0c0,0,3.021-63.733-46.905-63.733
						C319.329,281.005,338.043,310.627,326.273,372.972z"/>
				</g>
			</g>
			<g>
				<g>
					<path style="fill:#F9D153;" d="M606.952,283.227c-56.79,0-45.986,29.8-58.061,92.145c0.249-0.562,3.594-1.165,3.791-1.759
						c17.215-52.083,23.247-79.884,69.609-72.015c17.663,2.998,27.3,18.708,31.47,36.906l0.318-0.138
						C651.031,322.942,643.586,283.227,606.952,283.227z"/>
				</g>
			</g>
			<g>
				<g>
					<g>
						<path style="fill:#E5A638;" d="M520.709,276.378h-16.16c-2.028,0-3.672-1.644-3.672-3.672l0,0
							c0-2.028,1.644-3.672,3.672-3.672h16.16c2.028,0,3.672,1.644,3.672,3.672l0,0
							C524.381,274.734,522.737,276.378,520.709,276.378z"/>
					</g>
				</g>
				<g>
					<g>
						<path style="fill:#CC7A27;" d="M520.904,269.034h-4.498c1.921,0,3.478,1.644,3.478,3.672c0,2.028-1.557,3.672-3.478,3.672
							h4.498c1.921,0,3.477-1.644,3.477-3.672C524.381,270.677,522.824,269.034,520.904,269.034z"/>
					</g>
				</g>
				<g>
					<g>
						<path style="fill:#19283B;" d="M521.376,273.386h-17.893c-0.73,0-1.322-0.592-1.322-1.322l0,0c0-0.73,0.592-1.322,1.322-1.322
							h17.892c0.73,0,1.322,0.592,1.322,1.322l0,0C522.698,272.795,522.106,273.386,521.376,273.386z"/>
					</g>
				</g>
			</g>
			<g>
				<g>
					<path style="fill:#C1E0F4;" d="M294.006,359.229H71.115c-2.705,0-4.898-2.193-4.898-4.898v-10.799
						c0-2.705,2.193-4.898,4.898-4.898h222.892c2.705,0,4.898,2.193,4.898,4.898v10.799
						C298.904,357.036,296.711,359.229,294.006,359.229z"/>
				</g>
				<g>
					<path style="fill:#7B98BA;" d="M291.557,359.229h-41.359c-2.705,0-4.898-2.193-4.898-4.898v-10.799
						c0-2.705,2.193-4.898,4.898-4.898h41.359c2.705,0,4.898,2.193,4.898,4.898v10.799
						C296.455,357.036,294.262,359.229,291.557,359.229z"/>
				</g>
				<g>
					<path style="fill:#DCF1FF;" d="M66.333,342.489h232.454c-0.479-2.203-2.435-3.855-4.781-3.855H71.115
						C68.768,338.634,66.812,340.286,66.333,342.489z"/>
				</g>
				<g>
					<path style="fill:#7B98BA;" d="M70.393,342.489c4.705-0.146,9.411-0.254,14.116-0.345l14.116-0.278l28.233-0.364
						c18.822-0.148,37.644-0.227,56.465-0.174l28.233,0.092c9.411,0.033,18.822,0.115,28.233,0.225l28.233,0.318
						c9.411,0.172,18.822,0.286,28.233,0.526c-9.411,0.24-18.822,0.354-28.233,0.526l-28.233,0.318
						c-9.411,0.11-18.822,0.192-28.233,0.225l-28.233,0.092c-18.822,0.054-37.643-0.025-56.465-0.173l-28.233-0.364l-14.116-0.278
						C79.804,342.742,75.099,342.634,70.393,342.489z"/>
				</g>
			</g>
			<g>
				<g>
					<path style="fill:#C1E0F4;" d="M681.726,340.932h-26.68c-2.705,0-4.898-2.193-4.898-4.898v-10.799
						c0-2.705,2.193-4.898,4.898-4.898h26.68c2.705,0,4.898,2.193,4.898,4.898v10.799
						C686.625,338.739,684.432,340.932,681.726,340.932z"/>
				</g>
				<g>
					<path style="fill:#7B98BA;" d="M679.277,340.932h-8.547c-2.705,0-4.898-2.193-4.898-4.898v-10.799
						c0-2.705,2.193-4.898,4.898-4.898h8.547c2.705,0,4.898,2.193,4.898,4.898v10.799
						C684.175,338.739,681.982,340.932,679.277,340.932z"/>
				</g>
				<g>
					<path style="fill:#DCF1FF;" d="M650.265,324.191h36.243c-0.479-2.203-2.435-3.855-4.781-3.855h-26.68
						C652.7,320.336,650.744,321.988,650.265,324.191z"/>
				</g>
				<g>
					<path style="fill:#7B98BA;" d="M654.325,324.191c2.471-0.554,4.942-0.799,7.412-0.989c2.471-0.148,4.941-0.236,7.412-0.172
						c1.235,0.013,2.471,0.029,3.706,0.092c1.235,0.039,2.471,0.111,3.706,0.202c2.471,0.184,4.941,0.421,7.412,0.867
						c-2.471,0.445-4.942,0.683-7.412,0.867c-1.235,0.092-2.471,0.164-3.706,0.202c-1.235,0.063-2.471,0.079-3.706,0.092
						c-2.471,0.064-4.941-0.024-7.412-0.172C659.267,324.991,656.796,324.745,654.325,324.191z"/>
				</g>
			</g>
			<g>
				<g>
					<g>
						<ellipse style="fill:#7B98BA;" cx="229.986" cy="313.993" rx="12.656" ry="13.364"/>
					</g>
				</g>
				<g>
					<g>
						<ellipse style="fill:#F9D153;" cx="226.876" cy="313.993" rx="12.656" ry="13.364"/>
					</g>
				</g>
				<g>
					<g>
						<path style="fill:#DFE5F5;" d="M235.671,313.993c0,5.129-3.938,9.287-8.795,9.287c-4.857,0-8.795-4.158-8.795-9.287
							c0-5.129,3.938-9.287,8.795-9.287C231.733,304.706,235.671,308.864,235.671,313.993z"/>
					</g>
				</g>
				<g>
					<g>
						<path style="fill:#C1E0F4;" d="M236.896,313.993c0,5.844-4.486,10.582-10.021,10.582c-5.534,0-10.021-4.737-10.021-10.582
							c0-5.844,4.486-10.581,10.021-10.581C232.41,303.412,236.896,308.15,236.896,313.993z"/>
					</g>
				</g>
				<g>
					<g>
						<path style="fill:#7B98BA;" d="M219.91,313.993c0-5.294,3.686-9.667,8.493-10.446c-0.499-0.081-1.007-0.135-1.528-0.135
							c-5.534,0-10.021,4.737-10.021,10.581c0,5.844,4.486,10.582,10.021,10.582c0.521,0,1.028-0.055,1.528-0.136
							C223.596,323.661,219.91,319.287,219.91,313.993z"/>
					</g>
				</g>
				<g>
					<g>
						<path style="fill:#DCF1FF;" d="M235.155,313.993c0,4.829-3.707,8.743-8.28,8.743c-4.573,0-8.28-3.914-8.28-8.743
							c0-4.828,3.707-8.743,8.28-8.743C231.448,305.251,235.155,309.165,235.155,313.993z"/>
					</g>
				</g>
			</g>
			<g>
				<g>
					<g>
						<ellipse style="fill:#7B98BA;" cx="256.949" cy="313.993" rx="12.656" ry="13.364"/>
					</g>
				</g>
				<g>
					<g>
						<path style="fill:#F9D153;" d="M266.495,313.993c0,7.381-5.666,13.364-12.656,13.364c-6.99,0-12.656-5.983-12.656-13.364
							c0-7.381,5.666-13.364,12.656-13.364C260.828,300.629,266.495,306.613,266.495,313.993z"/>
					</g>
				</g>
				<g>
					<g>
						<path style="fill:#DFE5F5;" d="M262.634,313.993c0,5.129-3.938,9.287-8.795,9.287c-4.857,0-8.795-4.158-8.795-9.287
							c0-5.129,3.938-9.287,8.795-9.287C258.696,304.706,262.634,308.864,262.634,313.993z"/>
					</g>
				</g>
				<g>
					<g>
						<path style="fill:#C1E0F4;" d="M263.859,313.993c0,5.844-4.486,10.582-10.021,10.582c-5.534,0-10.021-4.737-10.021-10.582
							c0-5.844,4.486-10.581,10.021-10.581C259.373,303.412,263.859,308.15,263.859,313.993z"/>
					</g>
				</g>
				<g>
					<g>
						<path style="fill:#7B98BA;" d="M246.873,313.993c0-5.294,3.686-9.667,8.493-10.446c-0.499-0.081-1.007-0.135-1.528-0.135
							c-5.534,0-10.021,4.737-10.021,10.581c0,5.844,4.486,10.582,10.021,10.582c0.521,0,1.028-0.055,1.528-0.136
							C250.559,323.661,246.873,319.287,246.873,313.993z"/>
					</g>
				</g>
				<g>
					<g>
						<path style="fill:#DCF1FF;" d="M262.118,313.993c0,4.829-3.707,8.743-8.28,8.743c-4.573,0-8.279-3.914-8.279-8.743
							c0-4.828,3.707-8.743,8.279-8.743C258.411,305.251,262.118,309.165,262.118,313.993z"/>
					</g>
				</g>
			</g>
			<g>
				<g>
					<g>
						<ellipse style="fill:#7B98BA;" cx="89.542" cy="313.993" rx="12.656" ry="13.364"/>
					</g>
				</g>
				<g>
					<g>
						<path style="fill:#F9D153;" d="M99.087,313.993c0,7.381-5.666,13.364-12.656,13.364c-6.99,0-12.656-5.983-12.656-13.364
							c0-7.381,5.666-13.364,12.656-13.364C93.421,300.629,99.087,306.613,99.087,313.993z"/>
					</g>
				</g>
				<g>
					<g>
						<path style="fill:#DFE5F5;" d="M95.226,313.993c0,5.129-3.938,9.287-8.795,9.287c-4.857,0-8.795-4.158-8.795-9.287
							c0-5.129,3.938-9.287,8.795-9.287C91.288,304.706,95.226,308.864,95.226,313.993z"/>
					</g>
				</g>
				<g>
					<g>
						<path style="fill:#C1E0F4;" d="M96.452,313.993c0,5.844-4.486,10.582-10.021,10.582c-5.534,0-10.021-4.737-10.021-10.582
							c0-5.844,4.486-10.581,10.021-10.581C91.965,303.412,96.452,308.15,96.452,313.993z"/>
					</g>
				</g>
				<g>
					<g>
						<path style="fill:#7B98BA;" d="M79.465,313.993c0-5.294,3.686-9.667,8.493-10.446c-0.499-0.081-1.007-0.135-1.528-0.135
							c-5.534,0-10.021,4.737-10.021,10.581c0,5.844,4.486,10.582,10.021,10.582c0.521,0,1.028-0.055,1.528-0.136
							C83.151,323.661,79.465,319.287,79.465,313.993z"/>
					</g>
				</g>
				<g>
					<g>
						<path style="fill:#DCF1FF;" d="M94.711,313.993c0,4.829-3.707,8.743-8.28,8.743c-4.573,0-8.28-3.914-8.28-8.743
							c0-4.828,3.707-8.743,8.28-8.743C91.004,305.251,94.711,309.165,94.711,313.993z"/>
					</g>
				</g>
			</g>
			<g>
				<g>
					<g>
						<ellipse style="fill:#7B98BA;" cx="116.505" cy="313.993" rx="12.656" ry="13.364"/>
					</g>
				</g>
				<g>
					<g>
						<ellipse style="fill:#F9D153;" cx="113.394" cy="313.993" rx="12.656" ry="13.364"/>
					</g>
				</g>
				<g>
					<g>
						<path style="fill:#DFE5F5;" d="M122.189,313.993c0,5.129-3.938,9.287-8.795,9.287c-4.857,0-8.795-4.158-8.795-9.287
							c0-5.129,3.938-9.287,8.795-9.287C118.251,304.706,122.189,308.864,122.189,313.993z"/>
					</g>
				</g>
				<g>
					<g>
						<path style="fill:#C1E0F4;" d="M123.415,313.993c0,5.844-4.486,10.582-10.021,10.582c-5.534,0-10.021-4.737-10.021-10.582
							c0-5.844,4.486-10.581,10.021-10.581C118.928,303.412,123.415,308.15,123.415,313.993z"/>
					</g>
				</g>
				<g>
					<g>
						<path style="fill:#7B98BA;" d="M106.428,313.993c0-5.294,3.686-9.667,8.493-10.446c-0.499-0.081-1.007-0.135-1.528-0.135
							c-5.534,0-10.021,4.737-10.021,10.581c0,5.844,4.486,10.582,10.021,10.582c0.521,0,1.028-0.055,1.528-0.136
							C110.114,323.661,106.428,319.287,106.428,313.993z"/>
					</g>
				</g>
				<g>
					<g>
						<path style="fill:#DCF1FF;" d="M121.674,313.993c0,4.829-3.707,8.743-8.28,8.743c-4.573,0-8.279-3.914-8.279-8.743
							c0-4.828,3.707-8.743,8.279-8.743C117.967,305.251,121.674,309.165,121.674,313.993z"/>
					</g>
				</g>
			</g>
			<g>
				<path style="fill:#C1E0F4;" d="M213.411,327.251h-77.416c-0.76,0-1.426-0.646-1.619-1.569l-4.776-22.823
					c-0.128-0.613,0.003-1.199,0.369-1.65c0.256-0.314,0.557-0.473,0.894-0.473h77.311c0.349,0,0.654,0.247,0.725,0.589
					l5.238,25.034c0.063,0.301-0.067,0.517-0.15,0.619C213.903,327.08,213.718,327.251,213.411,327.251z M130.863,301.736
					c-0.014,0.003-0.057,0.029-0.118,0.104c-0.172,0.212-0.232,0.501-0.167,0.813l4.776,22.823c0.093,0.441,0.368,0.774,0.641,0.774
					h77.097l-5.13-24.516H130.863z"/>
			</g>
			<g>
				<path style="fill:#19283B;" d="M429.774,258.896c0,0,34.666,0,65.777,0c31.111,0,82.545-0.081,97.482-14.781
					c0,0-33.449-39.976-123.818-48.583c-6.505-0.62-12.688,2.95-15.334,8.925L429.774,258.896z"/>
			</g>
			<g>
				<path style="fill:#466677;" d="M434.384,255.897l22.239-50.224c1.939-4.379,6.309-7.209,11.132-7.209
					c0.39,0,0.785,0.018,1.176,0.056c75.968,7.235,111.231,37.021,119.724,45.351c-16.841,12.027-66.064,12.026-93.104,12.026
					H434.384z"/>
			</g>
			<g>
				<path style="fill:#3C5966;" d="M532.412,251.065c0-13.575-11.005-24.579-24.579-24.579h-60.426l-13.023,29.411h61.167
					c10.13,0,23.374,0,36.862-0.632V251.065z"/>
			</g>
			<g>
				<rect x="466.12" y="196.412" style="fill:#19283B;" width="3" height="60.74"/>
			</g>
			<g>
				<g>
					<rect x="203.064" y="203.038" style="fill:#19283B;" width="77.388" height="33.938"/>
				</g>
				<g>
					<path style="fill:#7B98BA;" d="M295.154,259.821h-49.391v-24.425h43.358c3.332,0,6.033,2.701,6.033,6.033V259.821z"/>
				</g>
				<g>
					<defs>
						<path id="SVGID_1_" d="M295.154,259.821h-49.391v-24.425h43.358c3.332,0,6.033,2.701,6.033,6.033V259.821z"/>
					</defs>
					<clipPath id="SVGID_00000093867865777880515490000016374535546053947546_">
						<use xlink:href="#SVGID_1_"  style="overflow:visible;"/>
					</clipPath>
					<g style="clip-path:url(#SVGID_00000093867865777880515490000016374535546053947546_);">
						<g>
							<rect x="237.398" y="237.567" style="fill:#466677;" width="69.225" height="1"/>
						</g>
						<g>
							<rect x="237.398" y="242.184" style="fill:#466677;" width="69.225" height="1"/>
						</g>
						<g>
							<rect x="237.398" y="246.802" style="fill:#466677;" width="69.225" height="1"/>
						</g>
						<g>
							<rect x="237.398" y="251.42" style="fill:#466677;" width="69.225" height="1"/>
						</g>
						<g>
							<rect x="237.398" y="256.038" style="fill:#466677;" width="69.225" height="1"/>
						</g>
					</g>
				</g>
				<g>
					<path style="fill:#C1E0F4;" d="M252.15,259.821h-56.937v-17.752c0-3.686,2.988-6.673,6.673-6.673h43.59
						c3.686,0,6.673,2.988,6.673,6.673V259.821z"/>
				</g>
				<g>
					<path style="fill:#7B98BA;" d="M198.415,256.62v-14.35c0-2.029,1.645-3.673,3.673-3.673h43.188
						c2.029,0,3.673,1.644,3.673,3.673v14.351H198.415z"/>
				</g>
				<g>
					<path style="fill:#466677;" d="M206.983,238.596h-4.649c-2.161,0-3.919,1.758-3.919,3.92v14.104h4.649v-14.104
						C203.064,240.355,204.822,238.596,206.983,238.596z"/>
				</g>
				<g>
					<path style="fill:#C1E0F4;" d="M279.948,222.71h-95.2v-42.364h95.2c10.393,0,18.819,8.425,18.819,18.819v4.726
						C298.767,214.285,290.341,222.71,279.948,222.71z"/>
				</g>
				<g>
					<polygon style="fill:#7B98BA;" points="234.858,222.71 276.905,222.71 268.123,180.346 234.858,180.346 					"/>
				</g>
				<g>
					<path style="fill:#7B98BA;" d="M255.09,202.515l5.849,7.904l37.439-3.868c0.251-1.269,0.389-2.578,0.389-3.921v-0.115H255.09z"
						/>
				</g>
				<g>
					<path style="fill:#C1E0F4;" d="M297.983,204.393h-110.55c-1.483,0-2.685-1.202-2.685-2.685v-0.36
						c0-1.483,1.202-2.684,2.685-2.684h110.55c1.483,0,2.685,1.202,2.685,2.684v0.36
						C300.667,203.191,299.465,204.393,297.983,204.393z"/>
				</g>
				<g>
					<path style="fill:#DCF1FF;" d="M297.965,199.738h-30.836c-0.443,0-0.801,0.359-0.801,0.802c0,0.443,0.359,0.802,0.801,0.802
						h30.836c0.443,0,0.802-0.359,0.802-0.802C298.767,200.097,298.408,199.738,297.965,199.738z"/>
				</g>
				<g>
					<path style="fill:#C1E0F4;" d="M257.836,226.206h-71.869c-4.059,0-7.35-3.291-7.35-7.35v-34.655c0-4.059,3.291-7.35,7.35-7.35
						h71.869c4.059,0,7.35,3.291,7.35,7.35v34.655C265.186,222.915,261.895,226.206,257.836,226.206z"/>
				</g>
				<g>
					<path style="fill:#19283B;" d="M181.819,218.655v-34.253c0-2.402,1.947-4.35,4.35-4.35h71.467c2.402,0,4.35,1.948,4.35,4.35
						v34.252c0,2.403-1.948,4.35-4.35,4.35h-71.467C183.766,223.004,181.819,221.057,181.819,218.655z"/>
				</g>
				<g>
					<path style="fill:#7B98BA;" d="M190.054,218.363v-33.67c0-2.559,2.082-4.642,4.641-4.642h-8.236
						c-2.559,0-4.641,2.083-4.641,4.642v33.67c0,2.559,2.082,4.641,4.641,4.641h8.236
						C192.136,223.004,190.054,220.922,190.054,218.363z"/>
				</g>
				<g>
					<circle style="fill:#466677;" cx="221.902" cy="254.003" r="11.732"/>
				</g>
				<g>
					<g>
						<ellipse style="fill:#7B98BA;" cx="205.053" cy="201.528" rx="9.242" ry="11.163"/>
					</g>
					<g>
						<path style="fill:#DCF1FF;" d="M256.908,200.912h-63.166c-0.443,0-0.802,0.359-0.802,0.802s0.359,0.802,0.802,0.802h63.166
							c0.443,0,0.802-0.359,0.802-0.802S257.351,200.912,256.908,200.912z"/>
					</g>
					<g>
						<ellipse style="fill:#7B98BA;" cx="225.846" cy="201.528" rx="9.242" ry="11.163"/>
					</g>
					<g>
						<ellipse style="fill:#7B98BA;" cx="246.64" cy="201.528" rx="9.242" ry="11.163"/>
					</g>
				</g>
			</g>
			<g>
				<g>
					<path style="fill:#CC7A27;" d="M243.487,251.942l-41.984,2.099v35.312h8.83c9.63-20.985,34.895-29.161,34.895-29.161v-8.37
						L243.487,251.942z"/>
				</g>
				<g>
					<path style="fill:#F9D153;" d="M137.741,290.902c0,0,9.012-39.079,62.667-39.079h44.821c0,0-40.839,8.532-40.839,39.079
						H137.741z"/>
				</g>
			</g>
			<g>
				<rect x="537.385" y="212.782" style="fill:#19283B;" width="3" height="43.464"/>
			</g>
			<g>
				<g>
					<g>
						<ellipse style="fill:#C1E0F4;" cx="469.005" cy="251.872" rx="13.635" ry="15.259"/>
					</g>
					<g>
						<path style="fill:#466677;" d="M471.888,254.539l-7.696,11.596c1.498,0.634,3.116,0.996,4.812,0.996
							c6.716,0,12.285-5.439,13.414-12.593H471.888z"/>
					</g>
					<g>
						<ellipse style="fill:#F2F7F9;" cx="467.439" cy="251.872" rx="12.069" ry="15.259"/>
					</g>
					<g>
						<path style="fill:#C1E0F4;" d="M458.914,262.673l6.381-8.134l-8.248,5.067C457.569,260.725,458.191,261.761,458.914,262.673z"
							/>
					</g>
				</g>
				<g>
					<path style="fill:#F2F7F9;" d="M464.952,255.424l-21.716,15.667c-0.896,0.646-2.146,0.444-2.792-0.452l0,0
						c-0.646-0.896-0.444-2.146,0.452-2.792l21.716-15.667c0.896-0.646,2.146-0.444,2.792,0.452l0,0
						C466.05,253.527,465.848,254.777,464.952,255.424z"/>
				</g>
			</g>
			<g>
				<path style="fill:#CC7A27;" d="M580.884,255.842c15.407-1.544,20.082-5.695,23.722-4.059c3.833,1.722,8.611,15.056,6.722,17.359
					c-1.136,1.385-25.926,1.197-25.926,1.197s21.556-2.25,20.445-5.852c-1.111-3.602-2.445-8.858-3.482-8.926
					C601.329,255.492,580.884,255.842,580.884,255.842z"/>
			</g>
			<g>
				<g>
					<rect x="130.801" y="305.119" style="fill:#C1E0F4;" width="78.61" height="1"/>
				</g>
				<g>
					<rect x="131.469" y="309.306" style="fill:#C1E0F4;" width="78.609" height="1"/>
				</g>
				<g>
					<rect x="132.135" y="313.493" style="fill:#C1E0F4;" width="78.609" height="1"/>
				</g>
				<g>
					<rect x="133.387" y="317.681" style="fill:#C1E0F4;" width="78.641" height="1"/>
				</g>
				<g>
					<rect x="134.277" y="321.867" style="fill:#C1E0F4;" width="78.627" height="1"/>
				</g>
			</g>
		</g>
	</g>
</g>
</svg>
